<?xml version="1.0" encoding="UTF-8" standalone="no"?>
<svg width="96px" height="96px" viewBox="0 0 96 96" version="1.1" xmlns="http://www.w3.org/2000/svg" xmlns:xlink="http://www.w3.org/1999/xlink" xmlns:sketch="http://www.bohemiancoding.com/sketch/ns">
    <!-- Generator: Sketch 3.4.2 (15855) - http://www.bohemiancoding.com/sketch -->
    <title>facebook</title>
    <desc>Created with Sketch.</desc>
    <defs></defs>
    <g id="Page-1" stroke="none" stroke-width="1" fill="none" fill-rule="evenodd" sketch:type="MSPage">
        <g id="facebook" sketch:type="MSLayerGroup" transform="translate(-2.000000, -2.000000)" fill="#001F5B">
            <path d="M82.36,2.12666667 L17.9033333,2.12666667 C9.43333333,2.12666667 2.54333333,9.01666667 2.54333333,17.4866667 L2.54333333,81.94 C2.54333333,90.4066667 9.43333333,97.3 17.9033333,97.3 L50.13,97.3 L50.13,61.7033333 L38.0433333,61.7033333 L38.0433333,46.69 L50.13,46.69 L50.13,39.1366667 C50.13,28.3066667 58.2633333,19.4966667 68.2566667,19.4966667 L80.3433333,19.4966667 L80.3433333,34.4633333 L68.2566667,34.4633333 C66.83,34.4633333 65.2366667,36.4 65.2366667,38.9966667 L65.2366667,46.69 L80.3433333,46.69 L80.3433333,61.7033333 L65.2366667,61.7033333 L65.2366667,97.3 L82.36,97.3 C90.83,97.3 97.7166667,90.4066667 97.7166667,81.94 L97.7166667,17.4866667 C97.7166667,9.01666667 90.8266667,2.12666667 82.36,2.12666667 L82.36,2.12666667 Z" id="Shape" sketch:type="MSShapeGroup"></path>
        </g>
    </g>
</svg>