<?xml version="1.0" encoding="UTF-8" standalone="no"?>
<svg width="100px" height="100px" viewBox="0 0 100 100" version="1.1" xmlns="http://www.w3.org/2000/svg" xmlns:xlink="http://www.w3.org/1999/xlink" xmlns:sketch="http://www.bohemiancoding.com/sketch/ns">
    <!-- Generator: Sketch 3.4.2 (15855) - http://www.bohemiancoding.com/sketch -->
    <title>instagram</title>
    <desc>Created with Sketch.</desc>
    <defs></defs>
    <g id="Page-1" stroke="none" stroke-width="1" fill="none" fill-rule="evenodd" sketch:type="MSPage">
        <g id="instagram" sketch:type="MSLayerGroup" transform="translate(0.000000, -2.000000)" fill="#001F5B">
            <path d="M87.9187041,44.197287 L79.277181,44.197287 C79.908226,46.6421553 80.2771976,49.1973702 80.2771976,51.8387935 C80.2771976,68.711488 66.601108,82.3875776 49.7318619,82.3875776 C32.8591674,82.3875776 19.1830778,68.711488 19.1830778,51.8387935 C19.1830778,49.1973702 19.5554978,46.6456036 20.1865427,44.197287 L11.5450197,44.197287 L11.5450197,86.2048825 C11.5450197,88.3118141 13.2553929,90.018739 15.3657729,90.018739 L84.0979509,90.018739 C86.2083308,90.018739 87.9221524,88.3083657 87.9221524,86.2048825 L87.9221524,44.197287 L87.9187041,44.197287 Z M87.9187041,17.4692562 C87.9187041,15.3623245 86.2083308,13.6485029 84.0945025,13.6485029 L72.6425879,13.6485029 C70.5322079,13.6485029 68.825283,15.3588762 68.825283,17.4692562 L68.825283,28.9280675 C68.825283,31.0349991 70.5356563,32.7453724 72.6425879,32.7453724 L84.0945025,32.7453724 C86.2048825,32.7453724 87.9187041,31.0349991 87.9187041,28.9280675 L87.9187041,17.4692562 L87.9187041,17.4692562 Z M49.7284135,32.7453724 C39.1834105,32.7453724 30.6349924,41.2903421 30.6349924,51.8387935 C30.6349924,62.3803482 39.1799622,70.9322146 49.7284135,70.9322146 C60.2734166,70.9322146 68.8218346,62.3803482 68.8218346,51.8387935 C68.825283,41.2937904 60.2768649,32.7453724 49.7284135,32.7453724 L49.7284135,32.7453724 Z M87.9187041,101.480999 L11.5450197,101.480999 C5.22077651,101.480999 0.089656664,96.3498788 0.089656664,90.0221873 L0.089656664,13.6553996 C0.089656664,7.33115645 5.21732818,2.20348493 11.5450197,2.20348493 L87.9187041,2.20348493 C94.2429472,2.20348493 99.3706187,7.33115645 99.3706187,13.6553996 L99.3706187,90.0221873 C99.3706187,96.3498788 94.2429472,101.480999 87.9187041,101.480999 L87.9187041,101.480999 Z" id="Shape" sketch:type="MSShapeGroup"></path>
        </g>
    </g>
</svg>