<svg xmlns="http://www.w3.org/2000/svg" xmlns:xlink="http://www.w3.org/1999/xlink" preserveAspectRatio="xMidYMid" width="12" height="18" viewBox="0 0 12 18">
  <defs>
    <style>
      .cls-1 {
        fill: #1d5fa2;
        fill-rule: evenodd;
      }
    </style>
  </defs>
  <path d="M10.802,8.389 C10.449,8.772 10.158,9.114 9.927,9.409 C9.696,9.705 9.463,10.079 9.228,10.528 C8.994,10.976 8.860,11.397 8.829,11.788 C9.197,12.007 9.381,12.326 9.381,12.748 C9.381,13.037 9.283,13.287 9.088,13.498 C9.283,13.710 9.381,13.960 9.381,14.249 C9.381,14.654 9.205,14.971 8.852,15.197 C8.954,15.378 9.006,15.561 9.006,15.747 C9.006,16.108 8.882,16.386 8.636,16.581 C8.389,16.776 8.085,16.873 7.725,16.873 C7.569,17.217 7.333,17.490 7.021,17.694 C6.707,17.897 6.366,17.998 5.999,17.998 C5.631,17.998 5.290,17.897 4.977,17.694 C4.664,17.490 4.429,17.217 4.273,16.873 C3.912,16.873 3.609,16.776 3.362,16.581 C3.116,16.386 2.993,16.108 2.993,15.747 C2.993,15.561 3.043,15.378 3.145,15.197 C2.793,14.971 2.617,14.654 2.617,14.249 C2.617,13.960 2.714,13.710 2.910,13.498 C2.714,13.287 2.617,13.037 2.617,12.748 C2.617,12.326 2.801,12.007 3.169,11.788 C3.137,11.397 3.005,10.976 2.769,10.528 C2.535,10.079 2.301,9.705 2.070,9.409 C1.839,9.114 1.548,8.772 1.196,8.389 C0.389,7.508 -0.014,6.462 -0.014,5.249 C-0.014,4.476 0.160,3.755 0.508,3.089 C0.857,2.419 1.315,1.865 1.883,1.424 C2.451,0.983 3.092,0.635 3.809,0.382 C4.525,0.127 5.255,-0.001 5.999,-0.001 C6.742,-0.001 7.473,0.127 8.189,0.382 C8.905,0.635 9.548,0.983 10.115,1.424 C10.682,1.865 11.140,2.419 11.489,3.089 C11.837,3.755 12.011,4.476 12.011,5.249 C12.011,6.462 11.608,7.508 10.802,8.389 ZM10.104,3.680 C9.833,3.194 9.481,2.798 9.047,2.490 C8.612,2.183 8.130,1.940 7.602,1.763 C7.074,1.588 6.539,1.499 5.999,1.499 C5.459,1.499 4.925,1.588 4.396,1.763 C3.868,1.940 3.386,2.183 2.952,2.490 C2.516,2.798 2.164,3.194 1.895,3.680 C1.624,4.165 1.489,4.688 1.489,5.249 C1.489,6.038 1.755,6.742 2.288,7.359 C2.366,7.446 2.486,7.572 2.646,7.745 C2.807,7.918 2.926,8.047 3.005,8.133 C4.006,9.327 4.558,10.491 4.660,11.624 L7.337,11.624 C7.439,10.491 7.991,9.327 8.994,8.133 C9.072,8.047 9.192,7.918 9.352,7.745 C9.512,7.572 9.632,7.446 9.710,7.359 C10.242,6.742 10.508,6.038 10.508,5.249 C10.508,4.688 10.373,4.165 10.104,3.680 ZM8.020,6.385 L6.641,6.385 L6.641,7.761 C6.641,8.124 6.346,8.418 5.982,8.418 C5.619,8.418 5.324,8.124 5.324,7.761 L5.324,6.385 L3.977,6.385 C3.614,6.385 3.318,6.090 3.318,5.728 C3.318,5.366 3.614,5.071 3.977,5.071 L5.324,5.071 L5.324,3.727 C5.324,3.365 5.619,3.070 5.982,3.070 C6.346,3.070 6.641,3.365 6.641,3.727 L6.641,5.071 L8.020,5.071 C8.384,5.071 8.679,5.366 8.679,5.728 C8.679,6.090 8.384,6.385 8.020,6.385 Z" class="cls-1"/>
</svg>
