<?xml version="1.0" encoding="UTF-8" standalone="no"?>
<svg width="98px" height="147px" viewBox="0 0 98 147" version="1.1" xmlns="http://www.w3.org/2000/svg" xmlns:xlink="http://www.w3.org/1999/xlink" xmlns:sketch="http://www.bohemiancoding.com/sketch/ns">
    <!-- Generator: Sketch 3.4.2 (15855) - http://www.bohemiancoding.com/sketch -->
    <title>lightbox</title>
    <desc>Created with Sketch.</desc>
    <defs></defs>
    <g id="Page-1" stroke="none" stroke-width="1" fill="none" fill-rule="evenodd" sketch:type="MSPage">
        <g id="lightbox" sketch:type="MSLayerGroup" transform="translate(-2.000000, 0.000000)" fill="#001F5B">
            <g id="Group" sketch:type="MSShapeGroup">
                <path d="M50.8596763,68.9855675 C53.8084349,68.9855675 56.208468,66.5855343 56.208468,63.6367757 L56.208468,52.4391853 L67.4060585,52.4391853 C70.3548171,52.4391853 72.7548503,50.0391521 72.7548503,47.0903935 C72.7548503,44.1416348 70.3548171,41.7416017 67.4060585,41.7416017 L56.208468,41.7416017 L56.208468,30.8081175 C56.208468,27.8593588 53.8084349,25.4593257 50.8596763,25.4593257 C47.9109176,25.4593257 45.5108845,27.8593588 45.5108845,30.8081175 L45.5108845,41.7416017 L34.5774003,41.7416017 C31.6286416,41.7416017 29.2286085,44.1416348 29.2286085,47.0903935 C29.2286085,50.0391521 31.6286416,52.4391853 34.5774003,52.4391853 L45.5108845,52.4391853 L45.5108845,63.6367757 C45.5108845,66.5855343 47.9109176,68.9855675 50.8596763,68.9855675 L50.8596763,68.9855675 Z" id="Shape"></path>
                <path d="M99.8090698,43.1903397 C99.8090698,53.0622708 96.5346656,61.5726446 89.9909856,68.7471026 C87.1268435,71.8599661 84.7627083,74.6420558 82.8857593,77.0472172 C81.0088103,79.4523786 79.1164765,82.4985745 77.2138862,86.1550352 C75.3087317,89.7986752 74.2241013,93.2192352 73.9728158,96.4038946 C76.9549082,98.1834063 78.4498006,100.783442 78.4498006,104.216823 C78.4498006,106.565573 77.657482,108.596371 76.0728448,110.322035 C77.657482,112.045136 78.4498006,114.075933 78.4498006,116.427248 C78.4498006,119.722165 77.0241399,122.30938 74.1599979,124.145303 C74.9882144,125.619682 75.4036048,127.106882 75.4036048,128.622288 C75.4036048,131.555662 74.403591,133.82236 72.4009992,135.406997 C70.3984075,136.994198 67.9291426,137.783953 65.0111536,137.783953 C63.7393412,140.578863 61.8264943,142.804535 59.2905619,144.458404 C56.746937,146.112273 53.977668,146.932797 50.9955756,146.932797 C48.0057907,146.932797 45.2390859,146.112273 42.7005893,144.458404 C40.1569645,142.804535 38.2441176,140.578863 36.9799975,137.783953 C34.051752,137.783953 31.5927437,136.991634 29.5875878,135.406997 C27.5849961,133.82236 26.5849823,131.555662 26.5849823,128.622288 C26.5849823,127.106882 26.9952444,125.617118 27.8234609,124.145303 C24.9670112,122.30938 23.5336581,119.724729 23.5336581,116.427248 C23.5336581,114.078497 24.3259768,112.0477 25.9183064,110.322035 C24.3259768,108.598935 23.5336581,106.568137 23.5336581,104.216823 C23.5336581,100.783442 25.0285506,98.1834063 28.0183354,96.4038946 C27.7593575,93.2192352 26.6824195,89.7986752 24.7695726,86.1550352 C22.8669823,82.4985745 20.9746484,79.4523786 19.0976995,77.0472172 C17.2207505,74.6420558 14.8566153,71.8599661 12.0001656,68.7471026 C5.45135729,61.5726446 2.17695312,53.0622708 2.17695312,43.1903397 C2.17695312,36.9056375 3.58979313,31.0363258 6.41803729,25.6157381 C9.24628146,20.1643809 12.9668456,15.6591905 17.5771657,12.0719615 C22.1849216,8.48473248 27.3926857,5.64879591 33.2132789,3.58979313 C39.0313079,1.51796967 44.9544666,0.476929659 50.9981397,0.476929659 C57.0341205,0.476929659 62.9649716,1.51796967 68.7753082,3.58979313 C74.5933372,5.64623177 79.8087938,8.48473248 84.4165497,12.0719615 C89.0191773,15.6591905 92.7397415,20.1643809 95.5679856,25.6157381 C98.3962298,31.0388899 99.8090698,36.9056375 99.8090698,43.1903397 L99.8090698,43.1903397 Z M87.6063373,43.1903397 C87.6063373,38.6287382 86.5088862,34.3748334 84.3191124,30.4260609 C82.1216462,26.4772885 79.2651965,23.2516029 75.7395068,20.7490043 C72.2086889,18.2464057 68.3009426,16.2720194 64.0111398,14.8258456 C59.721337,13.4078774 55.3853798,12.6847904 50.9955756,12.6847904 C46.6083356,12.6847904 42.2723783,13.4078774 37.9825755,14.8258456 C33.6927727,16.2720194 29.777334,18.2464057 26.2542085,20.7490043 C22.7208264,23.2516029 19.8643767,26.4772885 17.6746029,30.4260609 C15.4771367,34.3748334 14.3796856,38.6287382 14.3796856,43.1903397 C14.3796856,49.6135052 16.5412539,55.3417894 20.8643905,60.3623715 C21.4977326,61.0726377 22.4695409,62.1008571 23.7695588,63.5060047 C25.0772692,64.9111523 26.0439492,65.9675771 26.6824195,66.6624585 C34.8158651,76.3805413 39.2954141,85.8524669 40.1210665,95.0705428 L61.8598281,95.0705428 C62.6880447,85.8524669 67.1650295,76.3831055 75.3061675,66.6624585 C75.9395096,65.9675771 76.9113179,64.9111523 78.2113358,63.5060047 C79.5113538,62.1008571 80.483162,61.0726377 81.1165041,60.3623715 C85.444769,55.3443536 87.6063373,49.6135052 87.6063373,43.1903397 L87.6063373,43.1903397 Z" id="Shape"></path>
            </g>
        </g>
    </g>
</svg>