<?xml version="1.0" encoding="UTF-8" standalone="no"?>
<svg width="99px" height="99px" viewBox="0 0 99 99" version="1.1" xmlns="http://www.w3.org/2000/svg" xmlns:xlink="http://www.w3.org/1999/xlink" xmlns:sketch="http://www.bohemiancoding.com/sketch/ns">
    <!-- Generator: Sketch 3.4.2 (15855) - http://www.bohemiancoding.com/sketch -->
    <title>message</title>
    <desc>Created with Sketch.</desc>
    <defs></defs>
    <g id="Page-1" stroke="none" stroke-width="1" fill="none" fill-rule="evenodd" sketch:type="MSPage">
        <g id="message" sketch:type="MSLayerGroup" transform="translate(-1.000000, 0.000000)" fill="#001F5B">
            <g id="Group" sketch:type="MSShapeGroup">
                <path d="M22.4553191,98.6255319 C21.7148936,98.6255319 20.9680851,98.4659574 20.2702128,98.1404255 C18.4531915,97.2914894 17.293617,95.4680851 17.293617,93.4638298 L17.293617,76.8489362 L6.45106383,76.8489362 C3.6,76.8489362 1.28723404,74.5361702 1.28723404,71.6851064 L1.28723404,5.33191489 C1.28723404,2.48085106 3.6,0.168085106 6.45106383,0.168085106 L94.5787234,0.168085106 C97.4297872,0.168085106 99.7425532,2.48085106 99.7425532,5.33191489 L99.7425532,71.6829787 C99.7425532,74.5340426 97.4297872,76.8468085 94.5787234,76.8468085 L50.3765957,76.8468085 L25.7680851,97.4212766 C24.8212766,98.2148936 23.6425532,98.6255319 22.4553191,98.6255319 L22.4553191,98.6255319 Z M11.612766,66.5212766 L22.4553191,66.5212766 C25.306383,66.5212766 27.6191489,68.8340426 27.6191489,71.6851064 L27.6191489,82.4148936 L45.1893617,67.7234043 C46.1191489,66.9468085 47.2893617,66.5212766 48.5,66.5212766 L89.412766,66.5212766 L89.412766,10.4957447 L11.612766,10.4957447 L11.612766,66.5212766 L11.612766,66.5212766 Z" id="Shape"></path>
                <path d="M76.9744681,34.4531915 L24.0531915,34.4531915 C21.2021277,34.4531915 18.8893617,32.1404255 18.8893617,29.2893617 C18.8893617,26.4382979 21.2021277,24.1255319 24.0531915,24.1255319 L76.9744681,24.1255319 C79.8255319,24.1255319 82.1382979,26.4382979 82.1382979,29.2893617 C82.1382979,32.1425532 79.8255319,34.4531915 76.9744681,34.4531915 L76.9744681,34.4531915 Z" id="Shape"></path>
                <path d="M52.093617,54.3212766 L24.0531915,54.3212766 C21.2021277,54.3212766 18.8893617,52.0085106 18.8893617,49.1574468 C18.8893617,46.306383 21.2021277,43.993617 24.0531915,43.993617 L52.093617,43.993617 C54.9446809,43.993617 57.2574468,46.306383 57.2574468,49.1574468 C57.2553191,52.0085106 54.9446809,54.3212766 52.093617,54.3212766 L52.093617,54.3212766 Z" id="Shape"></path>
            </g>
        </g>
    </g>
</svg>