<?xml version="1.0" encoding="UTF-8" standalone="no"?>
<svg width="97px" height="96px" viewBox="0 0 97 96" version="1.1" xmlns="http://www.w3.org/2000/svg" xmlns:xlink="http://www.w3.org/1999/xlink" xmlns:sketch="http://www.bohemiancoding.com/sketch/ns">
    <!-- Generator: Sketch 3.4.2 (15855) - http://www.bohemiancoding.com/sketch -->
    <title>pinterest</title>
    <desc>Created with Sketch.</desc>
    <defs></defs>
    <g id="Page-1" stroke="none" stroke-width="1" fill="none" fill-rule="evenodd" sketch:type="MSPage">
        <g id="pinterest" sketch:type="MSLayerGroup" transform="translate(-2.000000, -2.000000)" fill="#001F5B">
            <path d="M50.3766667,2.12666667 C23.9233333,2.12666667 2.47333333,23.5733333 2.47333333,50.03 C2.47333333,69.6433333 14.27,86.4966667 31.1466667,93.9066667 C31.0133333,90.5633333 31.1233333,86.5466667 31.98,82.9066667 C32.9,79.0166667 38.1433333,56.8033333 38.1433333,56.8033333 C38.1433333,56.8033333 36.6133333,53.7433333 36.6133333,49.2233333 C36.6133333,42.1233333 40.7266667,36.8233333 45.8533333,36.8233333 C50.21,36.8233333 52.3166667,40.0966667 52.3166667,44.0166667 C52.3166667,48.3966667 49.5233333,54.95 48.0866667,61.0166667 C46.8866667,66.0966667 50.6333333,70.2433333 55.6466667,70.2433333 C64.7233333,70.2433333 70.8366667,58.5866667 70.8366667,44.7766667 C70.8366667,34.2766667 63.7666667,26.42 50.9033333,26.42 C36.3733333,26.42 27.32,37.2566667 27.32,49.36 C27.32,53.5333333 28.55,56.4766667 30.4766667,58.7566667 C31.3633333,59.8033333 31.4866667,60.2233333 31.1633333,61.4266667 C30.9333333,62.3066667 30.4066667,64.43 30.1866667,65.27 C29.8666667,66.4833333 28.8833333,66.9166667 27.7866667,66.47 C21.0933333,63.7366667 17.9766667,56.41 17.9766667,48.17 C17.9766667,34.5633333 29.4533333,18.2466667 52.2133333,18.2466667 C70.5033333,18.2466667 82.54,31.48 82.54,45.6866667 C82.54,64.4766667 72.0933333,78.5166667 56.6933333,78.5166667 C51.52,78.5166667 46.6566667,75.72 44.99,72.5466667 C44.99,72.5466667 42.21,83.5833333 41.62,85.7133333 C40.6033333,89.4066667 38.6166667,93.0966667 36.8,95.9766667 C41.11,97.25 45.66,97.94 50.3766667,97.94 C76.83,97.94 98.2766667,76.4933333 98.2766667,50.0366667 C98.2766667,23.5733333 76.83,2.12666667 50.3766667,2.12666667 L50.3766667,2.12666667 Z" id="Shape" sketch:type="MSShapeGroup"></path>
        </g>
    </g>
</svg>