<?xml version="1.0" encoding="UTF-8" standalone="no"?>
<svg width="97px" height="99px" viewBox="0 0 97 99" version="1.1" xmlns="http://www.w3.org/2000/svg" xmlns:xlink="http://www.w3.org/1999/xlink" xmlns:sketch="http://www.bohemiancoding.com/sketch/ns">
    <!-- Generator: Sketch 3.4.2 (15855) - http://www.bohemiancoding.com/sketch -->
    <title>search</title>
    <desc>Created with Sketch.</desc>
    <defs></defs>
    <g id="Page-1" stroke="none" stroke-width="1" fill="none" fill-rule="evenodd" sketch:type="MSPage">
        <g id="search" sketch:type="MSLayerGroup" transform="translate(-2.000000, -1.000000)" fill="#001F5B">
            <path d="M98.33,91.67 C98.33,93.7 97.6,95.4525 96.1375,96.935 C94.68,98.415 92.95,99.1575 90.955,99.1575 C88.88,99.1575 87.155,98.415 85.7725,96.935 L66.0175,76.935 C59.1425,81.77 51.4825,84.1875 43.0375,84.1875 C37.545,84.1875 32.295,83.105 27.285,80.9425 C22.275,78.775 17.9525,75.855 14.325,72.1725 C10.6975,68.49 7.82,64.1025 5.685,59.015 C3.555,53.9275 2.49,48.6 2.49,43.0225 C2.49,37.45 3.5575,32.115 5.685,27.03 C7.82,21.9425 10.695,17.56 14.325,13.875 C17.955,10.19 22.275,7.2675 27.285,5.1 C32.295,2.94 37.545,1.855 43.0375,1.855 C48.5275,1.855 53.78,2.9375 58.79,5.1 C63.8,7.2675 68.1175,10.19 71.7475,13.875 C75.3775,17.56 78.2575,21.9425 80.39,27.03 C82.52,32.1175 83.585,37.45 83.585,43.0225 C83.585,51.6 81.2025,59.38 76.44,66.355 L96.195,86.4125 C97.615,87.85 98.33,89.6075 98.33,91.67 L98.33,91.67 Z M61.2625,61.53 C66.315,56.405 68.84,50.235 68.84,43.02 C68.84,35.81 66.315,29.64 61.2625,24.515 C56.215,19.385 50.1375,16.8225 43.035,16.8225 C35.93,16.8225 29.8525,19.385 24.805,24.515 C19.7575,29.64 17.2325,35.81 17.2325,43.02 C17.2325,50.235 19.7575,56.405 24.805,61.53 C29.8525,66.655 35.93,69.2175 43.035,69.2175 C50.1375,69.2175 56.215,66.655 61.2625,61.53 L61.2625,61.53 Z" id="Shape" sketch:type="MSShapeGroup"></path>
        </g>
    </g>
</svg>