<svg xmlns="http://www.w3.org/2000/svg" xmlns:xlink="http://www.w3.org/1999/xlink" preserveAspectRatio="xMidYMid" width="19.59" height="18.344" viewBox="0 0 19.59 18.344">
  <defs>
    <style>
      .cls-1 {
        fill: #1d5fa2;
        fill-rule: evenodd;
      }
    </style>
  </defs>
  <path d="M19.552,5.962 L17.825,11.434 C17.724,11.756 17.440,11.972 17.119,11.972 L7.020,11.972 C6.690,11.972 6.404,11.748 6.308,11.416 L3.452,1.569 L0.747,1.569 C0.337,1.569 0.003,1.216 0.003,0.783 C0.003,0.350 0.337,-0.002 0.747,-0.002 L4.002,-0.002 C4.331,-0.002 4.617,0.221 4.714,0.553 L5.983,4.929 L18.845,4.929 C19.084,4.929 19.310,5.051 19.449,5.255 C19.589,5.459 19.627,5.724 19.552,5.962 ZM6.439,6.500 L7.570,10.401 L16.582,10.401 L17.813,6.500 L6.439,6.500 ZM8.601,13.382 C9.894,13.382 10.947,14.493 10.947,15.858 C10.947,17.223 9.894,18.333 8.601,18.333 C7.307,18.333 6.255,17.223 6.255,15.858 C6.255,14.493 7.307,13.382 8.601,13.382 ZM8.601,16.762 C9.074,16.762 9.458,16.356 9.458,15.858 C9.458,15.359 9.074,14.953 8.601,14.953 C8.128,14.953 7.743,15.359 7.743,15.858 C7.743,16.356 8.128,16.762 8.601,16.762 ZM14.763,13.382 C16.057,13.382 17.109,14.493 17.109,15.858 C17.109,17.223 16.057,18.333 14.763,18.333 C13.470,18.333 12.417,17.223 12.417,15.858 C12.417,14.493 13.470,13.382 14.763,13.382 ZM14.763,16.762 C15.236,16.762 15.620,16.356 15.620,15.858 C15.620,15.359 15.236,14.953 14.763,14.953 C14.290,14.953 13.906,15.359 13.906,15.858 C13.906,16.356 14.290,16.762 14.763,16.762 Z" class="cls-1"/>
</svg>
