<?xml version="1.0" encoding="UTF-8" standalone="no"?>
<svg width="98px" height="98px" viewBox="0 0 98 98" version="1.1" xmlns="http://www.w3.org/2000/svg" xmlns:xlink="http://www.w3.org/1999/xlink" xmlns:sketch="http://www.bohemiancoding.com/sketch/ns">
    <!-- Generator: Sketch 3.4.2 (15855) - http://www.bohemiancoding.com/sketch -->
    <title>twitter</title>
    <desc>Created with Sketch.</desc>
    <defs></defs>
    <g id="Page-1" stroke="none" stroke-width="1" fill="none" fill-rule="evenodd" sketch:type="MSPage">
        <g id="twitter" sketch:type="MSLayerGroup" transform="translate(0.000000, -2.000000)" fill="#001F5B">
            <path d="M81.5566667,2.12666667 L16.6466667,2.12666667 C7.72,2.12666667 0.416666667,9.43 0.416666667,18.3566667 L0.416666667,83.26 C0.416666667,92.19 7.72,99.49 16.6466667,99.49 L81.5566667,99.49 C90.4833333,99.49 97.78,92.1933333 97.78,83.26 L97.78,18.3566667 C97.78,9.43 90.4833333,2.12666667 81.5566667,2.12666667 L81.5566667,2.12666667 L81.5566667,2.12666667 Z M24.1133333,31.56 C30.42,33.9633333 36.49,36.7066667 42.3266667,39.7866667 C43.2066667,40.2266667 44.0433333,40.7533333 44.8333333,41.37 C45.83,42.22 46.8266667,43.0866667 47.8266667,43.9666667 C49.1766667,40.5933333 50.76,37.3666667 52.5766667,34.29 C53.4566667,32.7366667 54.4966667,31.3 55.7,29.98 C56.6966667,28.8366667 57.7833333,27.7666667 58.9566667,26.77 L57.9,28.8366667 C59.4833333,27.5166667 61.3466667,26.6533333 63.4866667,26.2433333 C63.4566667,26.6833333 63.28,27.0333333 62.96,27.3 C62.8433333,27.4166667 62.7266667,27.5333333 62.6066667,27.6533333 C62.46,27.77 62.3133333,27.8733333 62.1666667,27.96 C61.99,28.0766667 61.8,28.1666667 61.5966667,28.2233333 C61.1566667,28.4866667 60.7,28.7233333 60.2333333,28.9266667 C61.35,28.6033333 62.39,28.2666667 63.3566667,27.9133333 C63.7666667,27.7066667 64.2066667,27.5633333 64.6766667,27.4733333 C64.8533333,27.4433333 65.0433333,27.43 65.2466667,27.43 C65.3633333,27.3733333 65.4966667,27.3433333 65.6433333,27.3433333 C65.8766667,27.3733333 66.1133333,27.4166667 66.3466667,27.4733333 C66.4366667,27.5633333 66.5366667,27.6633333 66.6566667,27.7833333 C66.8033333,28.2833333 66.54,28.7066667 65.8633333,29.06 C65.2466667,29.3533333 64.6166667,29.6166667 63.97,29.8533333 C63.5,29.97 63.0333333,30.1033333 62.5633333,30.25 C61.89,30.4566667 61.2133333,30.6766667 60.54,30.91 C63.62,30.7033333 66.42,31.4233333 68.9433333,33.0666667 C70.0866667,33.83 71.1133333,34.7366667 72.0233333,35.7933333 C73.7533333,37.7866667 74.9566667,40.1033333 75.63,42.7433333 C75.7766667,43.27 75.91,43.8133333 76.0266667,44.37 C77.9333333,44.87 79.8833333,44.8833333 81.8766667,44.4133333 C82.4933333,44.2066667 83.1066667,43.9733333 83.7233333,43.71 C83.9866667,43.6233333 84.2366667,43.52 84.4733333,43.4033333 C83.6533333,45.1033333 82.36,46.3066667 80.6033333,47.01 C79.81,47.3333333 78.99,47.5666667 78.14,47.7133333 C77.67,47.89 77.2,48.0066667 76.7333333,48.0666667 C78.3166667,48.6833333 79.9733333,49.0033333 81.7033333,49.0333333 L83.8166667,49.0333333 C84.11,48.9733333 84.4166667,48.9166667 84.74,48.8566667 C83.48,50.2933333 81.9233333,51.2466667 80.0766667,51.7166667 C79.2566667,51.8333333 78.45,51.95 77.6566667,52.07 C77.1866667,52.07 76.7333333,52.0833333 76.2933333,52.1133333 C75.2366667,56.54 73.1566667,60.3833333 70.0466667,63.64 C68.4033333,65.37 66.6166667,66.91 64.68,68.26 C60.81,71.0466667 56.5566667,73.01 51.9233333,74.1533333 C47.0833333,75.3866667 42.1733333,75.6933333 37.1866667,75.0766667 C30.3233333,74.1366667 24.24,71.44 18.93,66.9833333 C16.8466667,65.2533333 15.03,63.3166667 13.4766667,61.1766667 C16.0866667,63.7 19.1966667,65.2833333 22.8033333,65.9266667 C24.68,66.25 26.5566667,66.3233333 28.4333333,66.1466667 C31.3366667,65.9133333 33.9466667,65.0333333 36.2633333,63.5066667 C37.5833333,62.6266667 38.8133333,61.6 39.96,60.4266667 C38.5233333,60.8066667 37.19,60.53 35.9566667,59.59 C35.4866667,59.18 35.18,58.6366667 35.0333333,57.9633333 C34.8,56.82 35.1633333,55.94 36.1333333,55.3233333 C36.66,55 37.19,54.6933333 37.7166667,54.4 C35.2233333,54.7233333 33.04,54.1066667 31.1633333,52.5533333 C30.6066667,52.1133333 30.0933333,51.6166667 29.6233333,51.0566667 C29.36,50.7333333 29.1233333,50.41 28.92,50.09 C29.8566667,49.1233333 30.9566667,48.55 32.22,48.3733333 C32.7466667,48.2866667 33.29,48.2133333 33.8466667,48.1533333 C31.7366667,47.7433333 29.83,46.79 28.1266667,45.2933333 C27.19,44.4733333 26.5433333,43.4766667 26.1933333,42.3033333 C26.0766667,41.8633333 25.9566667,41.4366667 25.84,41.0266667 L30.24,40.5433333 C28.1866667,39.5766667 26.5433333,38.1233333 25.3133333,36.1866667 C25.2833333,36.1266667 25.2566667,36.07 25.2233333,36.01 C24.5766667,34.9533333 24.2266667,33.8533333 24.1666667,32.71 C24.1266667,32.3233333 24.1133333,31.9433333 24.1133333,31.56 L24.1133333,31.56 Z" id="Shape" sketch:type="MSShapeGroup"></path>
        </g>
    </g>
</svg>