<?xml version="1.0" encoding="UTF-8" standalone="no"?>
<svg width="97px" height="104px" viewBox="0 0 97 104" version="1.1" xmlns="http://www.w3.org/2000/svg" xmlns:xlink="http://www.w3.org/1999/xlink" xmlns:sketch="http://www.bohemiancoding.com/sketch/ns">
    <!-- Generator: Sketch 3.4.2 (15855) - http://www.bohemiancoding.com/sketch -->
    <title>user</title>
    <desc>Created with Sketch.</desc>
    <defs></defs>
    <g id="Page-1" stroke="none" stroke-width="1" fill="none" fill-rule="evenodd" sketch:type="MSPage">
        <g id="user" sketch:type="MSLayerGroup" transform="translate(-2.000000, 0.000000)" fill="#001F5B">
            <g id="Group" sketch:type="MSShapeGroup">
                <path d="M23.5543478,57.8391304 C24.9021739,58.7152174 26.3847826,59.6673913 27.9891304,60.6891304 C30.6891304,62.4217391 33.9434783,63.8913043 37.95,65.1891304 C42.0652174,66.5152174 46.276087,67.1891304 50.4673913,67.1891304 C54.6586957,67.1891304 58.8717391,66.5173913 63.0021739,65.1847826 C66.9804348,63.8956522 70.2304348,62.426087 72.926087,60.7021739 C74.55,59.6652174 76.0391304,58.7108696 77.3804348,57.8391304 C77.873913,57.9369565 78.3347826,58.0717391 78.7565217,58.2369565 C79.7478261,58.6304348 80.5456522,59.1130435 81.1195652,59.6586957 C81.9652174,60.4695652 82.7543478,61.5152174 83.4565217,62.7456522 C84.3217391,64.273913 85.0152174,65.8391304 85.5130435,67.4 C86.1043478,69.2478261 86.6021739,71.2913043 86.9934783,73.473913 C87.4021739,75.7565217 87.6782609,77.8847826 87.8108696,79.8 C87.9521739,81.8586957 88.026087,84 88.026087,86.1673913 C88.026087,89.7630435 86.8717391,90.8608696 86.3804348,91.3304348 C85.576087,92.0956522 84.0956522,93.1130435 80.5282609,93.1130435 L20.4130435,93.1130435 C16.8434783,93.1130435 15.3673913,92.0978261 14.5630435,91.3326087 C14.0695652,90.8630435 12.9173913,89.7652174 12.9173913,86.1673913 C12.9173913,84 12.9891304,81.8586957 13.1326087,79.8 C13.2652174,77.8913043 13.5391304,75.7608696 13.9521739,73.4695652 C14.3456522,71.2695652 14.8413043,69.2282609 15.4195652,67.4195652 C15.9304348,65.8304348 16.623913,64.2630435 17.4782609,62.7608696 C18.1934783,61.5043478 18.9804348,60.4608696 19.8043478,59.6695652 C20.3891304,59.1108696 21.1869565,58.6304348 22.1630435,58.2434783 C22.5956522,58.073913 23.0586957,57.9391304 23.5543478,57.8391304 L23.5543478,57.8391304 Z M75.0934783,46.7586957 C74.6782609,46.7586957 73.7130435,47.2543478 72.2043478,48.2369565 C70.6913043,49.226087 68.9804348,50.323913 67.0782609,51.5369565 C65.173913,52.7565217 62.7,53.8543478 59.65,54.8413043 C56.6,55.823913 53.5369565,56.3173913 50.4652174,56.3173913 C47.3913043,56.3173913 44.3326087,55.826087 41.2826087,54.8413043 C38.2326087,53.8521739 35.7565217,52.7543478 33.8543478,51.5369565 C31.95,50.323913 30.2434783,49.223913 28.7282609,48.2369565 C27.2152174,47.2543478 26.25,46.7586957 25.8391304,46.7586957 C23.0391304,46.7586957 20.4869565,47.2195652 18.1695652,48.1326087 C15.8521739,49.05 13.8913043,50.2804348 12.2869565,51.8130435 C10.6826087,53.3521739 9.26304348,55.2086957 8.02391304,57.3847826 C6.78478261,59.5608696 5.80217391,61.7978261 5.06521739,64.0891304 C4.3326087,66.3804348 3.72608696,68.8673913 3.24565217,71.5521739 C2.76304348,74.2347826 2.44347826,76.7326087 2.2826087,79.05 C2.12173913,81.3673913 2.04130435,83.7391304 2.04130435,86.1673913 C2.04130435,91.676087 3.7173913,96.0173913 7.06086957,99.2021739 C10.4065217,102.391304 14.8543478,103.980435 20.4086957,103.980435 L80.523913,103.980435 C86.0695652,103.980435 90.5195652,102.391304 93.8695652,99.2021739 C97.2152174,96.0173913 98.8913043,91.673913 98.8913043,86.1673913 C98.8913043,83.7391304 98.8108696,81.3673913 98.65,79.05 C98.4891304,76.7347826 98.1673913,74.2347826 97.6869565,71.5521739 C97.2043478,68.8673913 96.5934783,66.3804348 95.8608696,64.0891304 C95.1282609,61.7978261 94.1413043,59.5608696 92.9065217,57.3847826 C91.6673913,55.2086957 90.2434783,53.3521739 88.6369565,51.8130435 C87.0326087,50.2782609 85.0717391,49.05 82.7586957,48.1326087 C80.4434783,47.2195652 77.8869565,46.7586957 75.0934783,46.7586957 L75.0934783,46.7586957 L75.0934783,46.7586957 Z" id="Shape"></path>
                <path d="M50.4673913,11.05 C54.4413043,11.05 57.3369565,12.25 60.15,15.0652174 C62.9630435,17.8782609 64.1652174,20.776087 64.1652174,24.7543478 C64.1652174,28.7282609 62.9652174,31.623913 60.1456522,34.4434783 C57.3391304,37.2521739 54.4456522,38.4521739 50.4695652,38.4521739 C46.4913043,38.4521739 43.5934783,37.2521739 40.7826087,34.4413043 C37.9695652,31.626087 36.7695652,28.7304348 36.7695652,24.7565217 C36.7695652,20.7782609 37.9695652,17.8782609 40.773913,15.0717391 C43.5934783,12.2521739 46.4934783,11.05 50.4673913,11.05 L50.4673913,11.05 Z M50.4673913,0.180434783 C43.626087,0.180434783 37.9434783,2.53478261 33.0913043,7.37826087 C28.25,12.2217391 25.8978261,17.9086957 25.8978261,24.7543478 C25.8978261,31.5913043 28.2521739,37.2782609 33.0913043,42.1217391 C37.9347826,46.9652174 43.6173913,49.3195652 50.4673913,49.3195652 C57.3152174,49.3195652 62.9978261,46.9652174 67.8347826,42.1217391 C72.6782609,37.2782609 75.0326087,31.5978261 75.0326087,24.7543478 C75.0326087,17.9086957 72.6782609,12.2217391 67.8347826,7.37826087 C62.9913043,2.53478261 57.3130435,0.180434783 50.4673913,0.180434783 L50.4673913,0.180434783 L50.4673913,0.180434783 Z" id="Shape"></path>
            </g>
        </g>
    </g>
</svg>