<svg xmlns="http://www.w3.org/2000/svg" xmlns:xlink="http://www.w3.org/1999/xlink" preserveAspectRatio="xMidYMid" width="12.25" height="13.344" viewBox="0 0 12.25 13.344">
  <defs>
    <style>
      .cls-1 {
        fill: #1d5fa2;
        fill-rule: evenodd;
      }
    </style>
  </defs>
  <path d="M11.696,12.587 C11.308,12.969 10.793,13.161 10.122,13.176 L2.226,13.341 C1.549,13.365 1.032,13.185 0.628,12.820 C0.227,12.457 0.025,11.964 0.011,11.312 C0.004,11.002 0.008,10.699 0.022,10.403 C0.037,10.113 0.072,9.793 0.126,9.451 C0.179,9.114 0.251,8.796 0.337,8.507 C0.423,8.223 0.541,7.942 0.688,7.674 C0.833,7.408 1.002,7.180 1.191,6.994 C1.375,6.811 1.605,6.663 1.875,6.551 C2.150,6.437 2.458,6.376 2.759,6.367 C2.765,6.369 2.828,6.388 3.041,6.519 C3.243,6.642 3.472,6.781 3.724,6.933 C3.996,7.098 4.336,7.240 4.767,7.367 C5.191,7.493 5.626,7.556 6.052,7.544 C6.480,7.535 6.909,7.458 7.328,7.314 C7.749,7.169 8.083,7.013 8.349,6.837 C8.596,6.673 8.819,6.526 9.016,6.393 C9.209,6.262 9.275,6.235 9.263,6.234 C9.592,6.217 9.905,6.276 10.181,6.376 C10.456,6.478 10.693,6.618 10.884,6.791 C11.081,6.970 11.260,7.192 11.416,7.450 C11.575,7.712 11.705,7.987 11.802,8.267 C11.901,8.555 11.986,8.869 12.054,9.202 C12.122,9.535 12.170,9.854 12.197,10.147 C12.224,10.443 12.241,10.745 12.247,11.055 L12.247,11.056 C12.262,11.708 12.081,12.209 11.696,12.587 ZM6.027,6.395 C5.112,6.433 4.374,6.124 3.725,5.508 C3.075,4.891 2.751,4.159 2.732,3.271 C2.713,2.381 3.006,1.637 3.628,0.993 C4.252,0.350 4.992,0.029 5.890,0.010 C5.917,0.009 5.944,0.009 5.970,0.009 C6.835,0.009 7.562,0.300 8.192,0.898 C8.841,1.514 9.167,2.246 9.185,3.135 C9.204,4.025 8.911,4.769 8.288,5.412 C7.666,6.055 6.926,6.376 6.027,6.395 Z" class="cls-1"/>
</svg>
