<?xml version="1.0" encoding="utf-8"?>
<!-- Generator: Adobe Illustrator 19.1.0, SVG Export Plug-In . SVG Version: 6.00 Build 0)  -->
<svg version="1.1" id="Layer_1" xmlns="http://www.w3.org/2000/svg" xmlns:xlink="http://www.w3.org/1999/xlink" x="0px" y="0px"
	 viewBox="0 0 5000 5000" enable-background="new 0 0 5000 5000" xml:space="preserve">
<g>
	<g>
		<path fill="#001F5B" d="M2283.066,2429.865c-6.604,0-11.978,5.67-11.978,12.639c0,6.969,5.373,12.638,11.978,12.638
			c6.605,0,11.978-5.669,11.978-12.638C2295.044,2435.535,2289.671,2429.865,2283.066,2429.865z M2283.066,2447.123
			c-2.413,0-4.378-2.072-4.378-4.618c0-2.547,1.965-4.62,4.378-4.62c2.414,0,4.378,2.073,4.378,4.62
			C2287.445,2445.051,2285.48,2447.123,2283.066,2447.123z M2314.528,2429.866c-6.604,0-11.977,5.669-11.977,12.638
			c0,6.969,5.373,12.638,11.977,12.638c6.604,0,11.976-5.669,11.976-12.638C2326.504,2435.535,2321.132,2429.866,2314.528,2429.866z
			 M2314.528,2447.122c-2.413,0-4.376-2.072-4.376-4.618c0-2.547,1.963-4.619,4.376-4.619s4.376,2.072,4.376,4.619
			C2318.904,2445.05,2316.941,2447.122,2314.528,2447.122z M2338.452,2388.372c-0.712-1.042-1.865-1.664-3.082-1.664h-65.67
			l-6.48-22.34c-0.493-1.696-1.953-2.834-3.633-2.834h-16.618c-2.096,0-3.801,1.799-3.801,4.009s1.705,4.01,3.801,4.01h13.807
			l14.584,50.275c0.492,1.697,1.952,2.837,3.634,2.837h51.56c1.639,0,3.088-1.103,3.605-2.743l8.816-27.938
			C2339.361,2390.766,2339.165,2389.416,2338.452,2388.372z M2323.815,2414.645h-46.01l-5.776-19.917h58.072L2323.815,2414.645z"/>
	</g>
</g>
</svg>
