<?xml version="1.0" encoding="UTF-8" standalone="no"?>
<svg width="108px" height="102px" viewBox="0 0 108 102" version="1.1" xmlns="http://www.w3.org/2000/svg" xmlns:xlink="http://www.w3.org/1999/xlink" xmlns:sketch="http://www.bohemiancoding.com/sketch/ns">
    <!-- Generator: Sketch 3.4.2 (15855) - http://www.bohemiancoding.com/sketch -->
    <title>cart-100</title>
    <desc>Created with Sketch.</desc>
    <defs></defs>
    <g id="Page-1" stroke="none" stroke-width="1" fill="none" fill-rule="evenodd" sketch:type="MSPage">
        <g id="cart-100" sketch:type="MSLayerGroup" transform="translate(4.000000, 2.000000)" fill="#FFFFFF">
            <path d="M44.066,68.865 C37.462,68.865 32.088,74.535 32.088,81.504 C32.088,88.473 37.461,94.142 44.066,94.142 C50.671,94.142 56.044,88.473 56.044,81.504 C56.044,74.535 50.671,68.865 44.066,68.865 L44.066,68.865 Z M44.066,86.123 C41.653,86.123 39.688,84.051 39.688,81.505 C39.688,78.958 41.653,76.885 44.066,76.885 C46.48,76.885 48.444,78.958 48.444,81.505 C48.445,84.051 46.48,86.123 44.066,86.123 L44.066,86.123 Z M75.528,68.866 C68.924,68.866 63.551,74.535 63.551,81.504 C63.551,88.473 68.924,94.142 75.528,94.142 C82.132,94.142 87.504,88.473 87.504,81.504 C87.504,74.535 82.132,68.866 75.528,68.866 L75.528,68.866 Z M75.528,86.122 C73.115,86.122 71.152,84.05 71.152,81.504 C71.152,78.957 73.115,76.885 75.528,76.885 C77.941,76.885 79.904,78.957 79.904,81.504 C79.904,84.05 77.941,86.122 75.528,86.122 L75.528,86.122 Z M99.452,27.372 C98.74,26.33 97.587,25.708 96.37,25.708 L30.7,25.708 L24.22,3.368 C23.727,1.672 22.267,0.534 20.587,0.534 L3.969,0.534 C1.873,0.534 0.168,2.333 0.168,4.543 C0.168,6.753 1.873,8.553 3.969,8.553 L17.776,8.553 L32.36,58.828 C32.852,60.525 34.312,61.665 35.994,61.665 L87.554,61.665 C89.193,61.665 90.642,60.562 91.159,58.922 L99.975,30.984 C100.361,29.766 100.165,28.416 99.452,27.372 L99.452,27.372 Z M84.815,53.645 L38.805,53.645 L33.029,33.728 L91.101,33.728 L84.815,53.645 L84.815,53.645 Z" id="Shape" sketch:type="MSShapeGroup"></path>
        </g>
    </g>
</svg>