<?xml version="1.0" encoding="UTF-8" standalone="no"?>
<svg width="98px" height="147px" viewBox="0 0 98 147" version="1.1" xmlns="http://www.w3.org/2000/svg" xmlns:xlink="http://www.w3.org/1999/xlink" xmlns:sketch="http://www.bohemiancoding.com/sketch/ns">
    <!-- Generator: Sketch 3.4.2 (15855) - http://www.bohemiancoding.com/sketch -->
    <title>lightbox-100</title>
    <desc>Created with Sketch.</desc>
    <defs></defs>
    <g id="Page-1" stroke="none" stroke-width="1" fill="none" fill-rule="evenodd" sketch:type="MSPage">
        <g id="lightbox-100" sketch:type="MSLayerGroup" fill="#FFFFFF">
            <g id="Page-1" sketch:type="MSShapeGroup">
                <g id="lightbox">
                    <g id="Group">
                        <path d="M48.8596763,68.9855675 C51.8084349,68.9855675 54.208468,66.5855343 54.208468,63.6367757 L54.208468,52.4391853 L65.4060585,52.4391853 C68.3548171,52.4391853 70.7548503,50.0391521 70.7548503,47.0903935 C70.7548503,44.1416348 68.3548171,41.7416017 65.4060585,41.7416017 L54.208468,41.7416017 L54.208468,30.8081175 C54.208468,27.8593588 51.8084349,25.4593257 48.8596763,25.4593257 C45.9109176,25.4593257 43.5108845,27.8593588 43.5108845,30.8081175 L43.5108845,41.7416017 L32.5774003,41.7416017 C29.6286416,41.7416017 27.2286085,44.1416348 27.2286085,47.0903935 C27.2286085,50.0391521 29.6286416,52.4391853 32.5774003,52.4391853 L43.5108845,52.4391853 L43.5108845,63.6367757 C43.5108845,66.5855343 45.9109176,68.9855675 48.8596763,68.9855675 L48.8596763,68.9855675 L48.8596763,68.9855675 Z" id="Shape"></path>
                        <path d="M97.8090698,43.1903397 C97.8090698,53.0622708 94.5346656,61.5726446 87.9909856,68.7471026 C85.1268435,71.8599661 82.7627083,74.6420558 80.8857593,77.0472172 C79.0088103,79.4523786 77.1164765,82.4985745 75.2138862,86.1550352 C73.3087317,89.7986752 72.2241013,93.2192352 71.9728158,96.4038946 C74.9549082,98.1834063 76.4498006,100.783442 76.4498006,104.216823 C76.4498006,106.565573 75.657482,108.596371 74.0728448,110.322035 C75.657482,112.045136 76.4498006,114.075933 76.4498006,116.427248 C76.4498006,119.722165 75.0241399,122.30938 72.1599979,124.145303 C72.9882144,125.619682 73.4036048,127.106882 73.4036048,128.622288 C73.4036048,131.555662 72.403591,133.82236 70.4009992,135.406997 C68.3984075,136.994198 65.9291426,137.783953 63.0111536,137.783953 C61.7393412,140.578863 59.8264943,142.804535 57.2905619,144.458404 C54.746937,146.112273 51.977668,146.932797 48.9955756,146.932797 C46.0057907,146.932797 43.2390859,146.112273 40.7005893,144.458404 C38.1569645,142.804535 36.2441176,140.578863 34.9799975,137.783953 C32.051752,137.783953 29.5927437,136.991634 27.5875878,135.406997 C25.5849961,133.82236 24.5849823,131.555662 24.5849823,128.622288 C24.5849823,127.106882 24.9952444,125.617118 25.8234609,124.145303 C22.9670112,122.30938 21.5336581,119.724729 21.5336581,116.427248 C21.5336581,114.078497 22.3259768,112.0477 23.9183064,110.322035 C22.3259768,108.598935 21.5336581,106.568137 21.5336581,104.216823 C21.5336581,100.783442 23.0285506,98.1834063 26.0183354,96.4038946 C25.7593575,93.2192352 24.6824195,89.7986752 22.7695726,86.1550352 C20.8669823,82.4985745 18.9746484,79.4523786 17.0976995,77.0472172 C15.2207505,74.6420558 12.8566153,71.8599661 10.0001656,68.7471026 C3.45135729,61.5726446 0.17695312,53.0622708 0.17695312,43.1903397 C0.17695312,36.9056375 1.58979313,31.0363258 4.41803729,25.6157381 C7.24628146,20.1643809 10.9668456,15.6591905 15.5771657,12.0719615 C20.1849216,8.48473248 25.3926857,5.64879591 31.2132789,3.58979313 C37.0313079,1.51796967 42.9544666,0.476929659 48.9981397,0.476929659 C55.0341205,0.476929659 60.9649716,1.51796967 66.7753082,3.58979313 C72.5933372,5.64623177 77.8087938,8.48473248 82.4165497,12.0719615 C87.0191773,15.6591905 90.7397415,20.1643809 93.5679856,25.6157381 C96.3962298,31.0388899 97.8090698,36.9056375 97.8090698,43.1903397 L97.8090698,43.1903397 L97.8090698,43.1903397 Z M85.6063373,43.1903397 C85.6063373,38.6287382 84.5088862,34.3748334 82.3191124,30.4260609 C80.1216462,26.4772885 77.2651965,23.2516029 73.7395068,20.7490043 C70.2086889,18.2464057 66.3009426,16.2720194 62.0111398,14.8258456 C57.721337,13.4078774 53.3853798,12.6847904 48.9955756,12.6847904 C44.6083356,12.6847904 40.2723783,13.4078774 35.9825755,14.8258456 C31.6927727,16.2720194 27.777334,18.2464057 24.2542085,20.7490043 C20.7208264,23.2516029 17.8643767,26.4772885 15.6746029,30.4260609 C13.4771367,34.3748334 12.3796856,38.6287382 12.3796856,43.1903397 C12.3796856,49.6135052 14.5412539,55.3417894 18.8643905,60.3623715 C19.4977326,61.0726377 20.4695409,62.1008571 21.7695588,63.5060047 C23.0772692,64.9111523 24.0439492,65.9675771 24.6824195,66.6624585 C32.8158651,76.3805413 37.2954141,85.8524669 38.1210665,95.0705428 L59.8598281,95.0705428 C60.6880447,85.8524669 65.1650295,76.3831055 73.3061675,66.6624585 C73.9395096,65.9675771 74.9113179,64.9111523 76.2113358,63.5060047 C77.5113538,62.1008571 78.483162,61.0726377 79.1165041,60.3623715 C83.444769,55.3443536 85.6063373,49.6135052 85.6063373,43.1903397 L85.6063373,43.1903397 L85.6063373,43.1903397 Z" id="Shape"></path>
                    </g>
                </g>
            </g>
        </g>
    </g>
</svg>