<?xml version="1.0" encoding="UTF-8" standalone="no"?>
<svg width="99px" height="99px" viewBox="0 0 99 99" version="1.1" xmlns="http://www.w3.org/2000/svg" xmlns:xlink="http://www.w3.org/1999/xlink" xmlns:sketch="http://www.bohemiancoding.com/sketch/ns">
    <!-- Generator: Sketch 3.4.2 (15855) - http://www.bohemiancoding.com/sketch -->
    <title>message-100</title>
    <desc>Created with Sketch.</desc>
    <defs></defs>
    <g id="Page-1" stroke="none" stroke-width="1" fill="none" fill-rule="evenodd" sketch:type="MSPage">
        <g id="message-100" sketch:type="MSLayerGroup" fill="#FFFFFF">
            <g id="Page-1" sketch:type="MSShapeGroup">
                <g id="message">
                    <g id="Group">
                        <path d="M21.4553191,98.6255319 C20.7148936,98.6255319 19.9680851,98.4659574 19.2702128,98.1404255 C17.4531915,97.2914894 16.293617,95.4680851 16.293617,93.4638298 L16.293617,76.8489362 L5.45106383,76.8489362 C2.6,76.8489362 0.28723404,74.5361702 0.28723404,71.6851064 L0.28723404,5.33191489 C0.28723404,2.48085106 2.6,0.168085106 5.45106383,0.168085106 L93.5787234,0.168085106 C96.4297872,0.168085106 98.7425532,2.48085106 98.7425532,5.33191489 L98.7425532,71.6829787 C98.7425532,74.5340426 96.4297872,76.8468085 93.5787234,76.8468085 L49.3765957,76.8468085 L24.7680851,97.4212766 C23.8212766,98.2148936 22.6425532,98.6255319 21.4553191,98.6255319 L21.4553191,98.6255319 L21.4553191,98.6255319 Z M10.612766,66.5212766 L21.4553191,66.5212766 C24.306383,66.5212766 26.6191489,68.8340426 26.6191489,71.6851064 L26.6191489,82.4148936 L44.1893617,67.7234043 C45.1191489,66.9468085 46.2893617,66.5212766 47.5,66.5212766 L88.412766,66.5212766 L88.412766,10.4957447 L10.612766,10.4957447 L10.612766,66.5212766 L10.612766,66.5212766 L10.612766,66.5212766 Z" id="Shape"></path>
                        <path d="M75.9744681,34.4531915 L23.0531915,34.4531915 C20.2021277,34.4531915 17.8893617,32.1404255 17.8893617,29.2893617 C17.8893617,26.4382979 20.2021277,24.1255319 23.0531915,24.1255319 L75.9744681,24.1255319 C78.8255319,24.1255319 81.1382979,26.4382979 81.1382979,29.2893617 C81.1382979,32.1425532 78.8255319,34.4531915 75.9744681,34.4531915 L75.9744681,34.4531915 L75.9744681,34.4531915 Z" id="Shape"></path>
                        <path d="M51.093617,54.3212766 L23.0531915,54.3212766 C20.2021277,54.3212766 17.8893617,52.0085106 17.8893617,49.1574468 C17.8893617,46.306383 20.2021277,43.993617 23.0531915,43.993617 L51.093617,43.993617 C53.9446809,43.993617 56.2574468,46.306383 56.2574468,49.1574468 C56.2553191,52.0085106 53.9446809,54.3212766 51.093617,54.3212766 L51.093617,54.3212766 L51.093617,54.3212766 Z" id="Shape"></path>
                    </g>
                </g>
            </g>
        </g>
    </g>
</svg>